<svg width="1318" height="25" viewBox="0 0 1318 25" fill="none" xmlns="http://www.w3.org/2000/svg">
<path id="Line 1" d="M0.333333 12.5C0.333333 18.391 5.10896 23.1667 11 23.1667C16.891 23.1667 21.6667 18.391 21.6667 12.5C21.6667 6.60896 16.891 1.83333 11 1.83333C5.10896 1.83333 0.333333 6.60896 0.333333 12.5ZM1318 12.5L1298 0.952995V24.047L1318 12.5ZM11 14.5H14.9848V10.5H11V14.5ZM22.9543 14.5H30.9238V10.5H22.9543V14.5ZM38.8933 14.5H46.8628V10.5H38.8933V14.5ZM54.8323 14.5H62.8018V10.5H54.8323V14.5ZM70.7713 14.5H78.7409V10.5H70.7713V14.5ZM86.7104 14.5H94.6799V10.5H86.7104V14.5ZM102.649 14.5H110.619V10.5H102.649V14.5ZM118.588 14.5H126.558V10.5H118.588V14.5ZM134.527 14.5H142.497V10.5H134.527V14.5ZM150.466 14.5H158.436V10.5H150.466V14.5ZM166.405 14.5H174.375V10.5H166.405V14.5ZM182.345 14.5H190.314V10.5H182.345V14.5ZM198.284 14.5H206.253V10.5H198.284V14.5ZM214.223 14.5H222.192V10.5H214.223V14.5ZM230.162 14.5H238.131V10.5L230.162 10.5V14.5ZM246.101 14.5H254.07V10.5H246.101V14.5ZM262.04 14.5H270.009V10.5H262.04V14.5ZM277.979 14.5H285.948V10.5H277.979V14.5ZM293.918 14.5H301.887V10.5H293.918V14.5ZM309.857 14.5H317.826V10.5H309.857V14.5ZM325.796 14.5H333.765V10.5H325.796V14.5ZM341.735 14.5H349.704V10.5H341.735V14.5ZM357.674 14.5H365.643V10.5H357.674V14.5ZM373.613 14.5H381.582V10.5H373.613V14.5ZM389.552 14.5L397.521 14.5V10.5H389.552V14.5ZM405.491 14.5H413.46V10.5H405.491V14.5ZM421.43 14.5H429.399V10.5H421.43V14.5ZM437.369 14.5H445.338V10.5H437.369V14.5ZM453.308 14.5H461.277V10.5H453.308V14.5ZM469.247 14.5H477.216V10.5H469.247V14.5ZM485.186 14.5H493.156V10.5H485.186V14.5ZM501.125 14.5H509.095V10.5H501.125V14.5ZM517.064 14.5H525.034V10.5H517.064V14.5ZM533.003 14.5H540.973V10.5H533.003V14.5ZM548.942 14.5H556.911V10.5H548.942V14.5ZM564.881 14.5H572.85V10.5H564.881V14.5ZM580.82 14.5H588.789V10.5H580.82V14.5ZM596.759 14.5H604.728V10.5H596.759V14.5ZM612.698 14.5H620.667V10.5H612.698V14.5ZM628.637 14.5H636.606V10.5H628.637V14.5ZM644.576 14.5H652.545V10.5H644.576V14.5ZM660.515 14.5H668.484V10.5H660.515V14.5ZM676.454 14.5H684.423V10.5L676.454 10.5V14.5ZM692.393 14.5H700.362V10.5H692.393V14.5ZM708.332 14.5H716.301V10.5H708.332V14.5ZM724.271 14.5H732.24V10.5H724.271V14.5ZM740.21 14.5H748.179V10.5H740.21V14.5ZM756.149 14.5H764.118V10.5H756.149V14.5ZM772.088 14.5L780.057 14.5V10.5H772.088V14.5ZM788.026 14.5H795.996V10.5H788.026V14.5ZM803.965 14.5H811.935V10.5H803.965V14.5ZM819.904 14.5H827.874V10.5H819.904V14.5ZM835.843 14.5H843.813V10.5H835.843V14.5ZM851.782 14.5H859.752V10.5H851.782V14.5ZM867.721 14.5H875.691V10.5H867.721V14.5ZM883.66 14.5H891.63V10.5H883.66V14.5ZM899.599 14.5H907.569V10.5H899.599V14.5ZM915.538 14.5H923.508V10.5H915.538V14.5ZM931.477 14.5H939.447V10.5H931.477V14.5ZM947.416 14.5H955.386V10.5H947.416V14.5ZM963.355 14.5H971.325V10.5H963.355V14.5ZM979.294 14.5H987.264V10.5H979.294V14.5ZM995.233 14.5H1003.2V10.5H995.233V14.5ZM1011.17 14.5H1019.14V10.5H1011.17V14.5ZM1027.11 14.5H1035.08V10.5H1027.11V14.5ZM1043.05 14.5H1051.02V10.5H1043.05V14.5ZM1058.99 14.5H1066.96V10.5H1058.99V14.5ZM1074.93 14.5H1082.9V10.5H1074.93V14.5ZM1090.87 14.5H1098.84V10.5H1090.87V14.5ZM1106.81 14.5H1114.78V10.5H1106.81V14.5ZM1122.74 14.5H1130.71V10.5H1122.74V14.5ZM1138.68 14.5H1146.65V10.5H1138.68V14.5ZM1154.62 14.5H1162.59V10.5H1154.62V14.5ZM1170.56 14.5H1178.53V10.5H1170.56V14.5ZM1186.5 14.5H1194.47V10.5H1186.5V14.5ZM1202.44 14.5H1210.41V10.5H1202.44V14.5ZM1218.38 14.5H1226.35V10.5H1218.38V14.5ZM1234.32 14.5H1242.29V10.5H1234.32V14.5ZM1250.26 14.5H1258.23V10.5H1250.26V14.5ZM1266.2 14.5H1274.16V10.5H1266.2V14.5ZM1282.13 14.5H1290.1V10.5H1282.13V14.5ZM1298.07 14.5H1306.04V10.5H1298.07V14.5Z" fill="#848080"/>
</svg>
